# xmcd CD database file
# Copyright 1993-1996 (C) Ti Kan
#
# Track frame offsets:
#    183
#    11333
#    28558
#    40295
#    51745
#    65570
#    80033
#    89658
#    103795
#    116358
#    130783
#    140958
#    153208
#    164283
#    174770
#    195020
#    206533
#    220233
#
# Disc length: 3116 seconds
#
# Revision: 0
# Processed by: cddbd v1.4b41PL1 Copyright (c) Steve Scherf et al.
# Submitted via: MyCDplayer 2.4.0c  (wjohn@fix.net)
#
DISCID=f70c2a12
DTITLE=Jim Croce - 
DTITLE=The Very best of Jim Croce
DYEAR=1900
DGENRE=
TTITLE0=Time in a bottle
TTITLE1=Operator
TTITLE2=It doesn't have to be that way
TTITLE3=I'll have to say I love you in a song
TTITLE4=Lover's cross
TTITLE5=These dreams
TTITLE6=Photograph's and memories
TTITLE7=New York's not my home
TTITLE8=One less set of footsteps
TTITLE9=I got a name
TTITLE10=Alabama's rain
TTITLE11=Dreaming again
TTITLE12=Thursday
TTITLE13=Which way are you going
TTITLE14=Chain gang medly
TTITLE15=Working at the car wash blues
TTITLE16=Bad bad Leroy Brown
TTITLE17=Yo don't mess around with Jim
EXTD=
EXTT0=
EXTT1=That's not the way it feels
EXTT2=
EXTT3=
EXTT4=
EXTT5=
EXTT6=
EXTT7=
EXTT8=
EXTT9=
EXTT10=
EXTT11=
EXTT12=
EXTT13=
EXTT14=Chain gang/he don't love you/searching
EXTT15=
EXTT16=
EXTT17=
PLAYORDER=
